Coordinates
version=1
nRows=20
nColumns=34
inDegrees=yes

Units are S.I. units (second, meters, Newtons, ...)
If the header above contains a line with 'inDegrees', this indicates whether rotational values are in degrees (yes) or radians (no).

endheader
time	pelvis_tilt	pelvis_list	pelvis_rotation	pelvis_tx	pelvis_ty	pelvis_tz	hip_flexion_r	hip_adduction_r	hip_rotation_r	knee_angle_r	ankle_angle_r	subtalar_angle_r	mtp_angle_r	hip_flexion_l	hip_adduction_l	hip_rotation_l	knee_angle_l	ankle_angle_l	subtalar_angle_l	mtp_angle_l	lumbar_extension	lumbar_bending	lumbar_rotation	arm_flex_r	arm_add_r	arm_rot_r	elbow_flex_r	pro_sup_r	arm_flex_l	arm_add_l	arm_rot_l	elbow_flex_l	pro_sup_l
      8.23333330	    -17.59644420	     -0.85540216	      2.70439999	      0.09617659	      1.11435514	     -0.06662300	     27.68127903	      2.29839373	     -1.90853407	     47.12342158	     35.77071380	    -11.19944093	      0.00000000	     30.93481995	      0.29256914	      2.44602080	     52.00991519	     27.99228646	    -19.05023556	      0.00000000	    -15.51249257	      1.70832354	     -1.46553662	      1.11858321	    -11.34080204	     30.62670858	     31.74074727	     67.83562837	    -11.70139765	    -17.23151703	     26.55940016	     59.70928307	     84.02323768
      8.25000000	    -17.47517186	     -0.66661822	      2.88047456	      0.12105950	      1.14354202	     -0.06634556	     22.25660231	      1.61898826	     -3.41789289	     38.25128123	     30.23185667	     -8.93947509	      0.00000000	     25.40993809	     -0.21412642	      1.06337732	     42.84308602	     24.53855874	    -15.78571526	      0.00000000	    -12.70246914	      1.21653830	     -2.72207169	     -0.67006306	    -11.48400833	     31.25972650	     32.95855026	     67.76367471	    -14.79255543	    -18.26519443	     25.56975733	     62.71769858	     83.96681917
      8.26666670	    -17.75810948	     -0.41173800	      3.14035319	      0.14659265	      1.17134665	     -0.06460842	     16.95879049	      0.90021343	     -5.62671358	     28.87806468	     23.29137692	     -4.83685243	      0.00000000	     19.84680090	     -0.69487365	     -1.41637047	     32.88547135	     20.20179021	    -10.80548392	      0.00000000	     -9.50887928	      0.37153958	     -4.38257914	     -2.40774799	    -11.87783322	     32.66827390	     34.91949258	     67.87409185	    -18.94275951	    -18.81146672	     22.72826132	     66.38344363	     83.80842856
      8.28333330	    -18.21353548	     -0.22601345	      3.27700624	      0.16610896	      1.19689473	     -0.06709869	     12.72532941	      0.20536728	     -8.01022611	     21.56359728	     16.37513221	     -1.02025236	      0.00000000	     15.16028025	     -0.94629933	     -4.55875937	     24.37956337	     14.48391393	     -5.88032464	      0.00000000	     -6.28789969	     -0.27754187	     -6.03926606	     -3.60668106	    -12.39473516	     33.36096993	     36.73884512	     68.00579148	    -21.88121351	    -19.50873359	     22.25241741	     68.60286735	     83.87774641
      8.30000000	    -18.69825616	      0.06421661	      3.14594403	      0.18610350	      1.22112140	     -0.06708327	      9.67296305	     -0.53899754	    -10.50111857	     15.96632192	      9.25255225	      3.22834268	      0.00000000	     11.63236848	     -1.07362367	     -8.04131158	     18.07852776	      7.77999750	     -1.57159762	      0.00000000	     -3.40699784	     -1.14359507	     -7.12351648	     -4.66166499	    -13.12688439	     34.51770373	     38.98971449	     68.25206498	    -24.16028765	    -19.91909608	     20.90456182	     70.60591353	     83.87920863
      8.31666670	    -19.22946964	      0.21773368	      3.34730607	      0.20665139	      1.24603959	     -0.07123876	      7.48124133	     -1.22850061	    -12.81277457	     12.12129184	      1.00311858	      6.95737265	      0.00000000	      9.46057659	     -0.93954241	    -10.56735836	     13.96155899	      0.23142979	      1.17963688	      0.00000000	     -0.85683719	     -1.68496800	     -8.33516047	     -5.17833463	    -14.26948368	     36.49883824	     41.16239745	     68.51918677	    -26.26285034	    -19.42300924	     19.40596196	     71.77785533	     84.05799372
      8.33333330	    -19.25223360	      0.44205807	      3.46181863	      0.22490580	      1.26734420	     -0.07339483	      5.61285654	     -2.00179584	    -14.22244672	      9.90484683	     -7.59443525	      8.51179340	      0.00000000	      7.73644254	     -0.74007495	    -12.72709032	     11.59676714	     -8.28876603	      1.93761079	      0.00000000	      0.84229593	     -2.10139093	     -8.72881365	     -5.57232438	    -14.79594767	     36.90901871	     42.06046754	     68.52468878	    -26.69545882	    -19.44469868	     19.28739518	     71.99558058	     84.20556306
      8.35000000	    -18.99368002	      0.61908909	      3.58809052	      0.24404892	      1.30014383	     -0.07136492	      4.02583228	     -2.65920039	    -15.20467368	      9.01940712	    -15.39390548	      8.39824861	      0.00000000	      6.71216406	     -0.75185689	    -13.00190786	     11.00140673	    -15.96009065	      1.22412181	      0.00000000	      1.85686929	     -2.46387355	     -8.63957765	     -5.99041995	    -15.23929336	     37.18282103	     43.03567877	     68.46906893	    -26.64104108	    -19.55731183	     19.09248293	     72.23651545	     84.38994388
      8.36666670	    -18.43383940	      0.54482682	      3.77500562	      0.26154115	      1.32030297	     -0.06888494	      3.04937918	     -3.06124880	    -15.35949333	     10.61773803	    -22.05305801	      5.92434208	      0.00000000	      6.46043396	     -1.29265591	    -11.20748490	     13.01554217	    -21.06944506	     -0.03225876	      0.00000000	      2.10516216	     -2.37192300	     -8.15741868	     -6.21847316	    -15.67676589	     37.07509829	     43.88831718	     68.32238136	    -26.80364686	    -19.82287101	     18.76436504	     74.01779416	     84.66929562
      8.38333330	    -17.18203879	      0.56464224	      4.12952584	      0.27473878	      1.34083739	     -0.06866071	      2.27678950	     -3.47357382	    -13.96881100	     14.17458972	    -25.83282596	      3.14978295	      0.00000000	      7.24592663	     -1.57341085	     -9.38274501	     17.27325248	    -25.38392491	     -3.16074413	      0.00000000	      1.14469485	     -2.39351237	     -7.53435097	     -6.10658140	    -15.77967564	     36.61349442	     44.30580089	     68.13837492	    -26.66642702	    -19.83679613	     17.90932758	     76.36542572	     85.00498706
      8.40000000	    -15.73776762	      0.83187704	      4.67345484	      0.28996157	      1.35762456	     -0.06803920	      2.17417235	     -3.99191397	    -12.20730588	     19.25811561	    -28.13214069	      0.45719406	      0.00000000	      8.73558720	     -1.52969179	     -7.93022465	     23.25154840	    -28.25291023	     -6.24083548	      0.00000000	     -0.26448943	     -2.63853651	     -7.16043225	     -5.65825624	    -15.60657187	     35.87741292	     44.29251655	     67.95557809	    -26.69957083	    -19.65522916	     16.83364665	     78.54741346	     85.44573728
      8.41666670	    -13.79320134	      0.65982095	      4.78480820	      0.30703947	      1.37688363	     -0.06743796	      2.38912840	     -3.86722907	    -10.79680460	     26.00091147	    -30.26121857	     -2.41445840	      0.00000000	      9.94148943	     -1.61769362	     -6.83796849	     28.62152683	    -29.18637971	     -7.35979255	      0.00000000	     -2.64745914	     -2.29675645	     -6.60340162	     -4.79084833	    -15.35505595	     34.89595292	     43.73718183	     67.79684184	    -26.69880026	    -18.69732104	     15.18188292	     80.16720780	     86.04113590
      8.43333330	    -12.43315238	      0.32513235	      4.82645710	      0.32527958	      1.39022362	     -0.06716935	      3.43725231	     -3.47915594	    -10.34209432	     31.61642451	    -29.96886256	     -3.23124086	      0.00000000	     10.94421391	     -1.96400039	     -7.21365023	     31.59522612	    -28.65118918	     -6.85940418	      0.00000000	     -4.22969919	     -1.81276310	     -6.20928292	     -3.91993778	    -15.04416767	     34.08076589	     43.05193975	     67.75353915	    -27.00364033	    -17.74558712	     13.50864136	     81.67648237	     86.95547851
      8.45000000	    -11.22607143	     -0.62087972	      4.97563247	      0.33957842	      1.39907387	     -0.06973432	      4.87008539	     -2.49073177	    -10.66210656	     36.63928216	    -30.36192662	     -3.11296651	      0.00000000	     11.45372386	     -2.66875182	     -7.12199859	     31.78829376	    -28.82954273	     -6.40047355	      0.00000000	     -5.93819692	     -0.45194869	     -5.92135320	     -2.94356197	    -15.27416277	     33.85363164	     42.91766076	     67.74665516	    -26.57648989	    -17.00114919	     13.47694993	     81.95898380	     87.09792629
      8.46666670	    -10.52728866	     -1.65923065	      4.50712753	      0.35361256	      1.40289288	     -0.07146746	      6.96778333	     -1.35442109	    -10.41743685	     40.31561384	    -28.29751004	     -2.59092377	      0.00000000	     12.36259479	     -3.63804718	     -9.00708776	     31.00792582	    -29.10281954	     -4.49052347	      0.00000000	     -6.87608100	      0.88056825	     -5.94024971	     -1.75371049	    -15.24044268	     33.36930756	     42.38992410	     68.10152410	    -27.57540368	    -15.01566974	     10.54373763	     83.37735497	     89.84545030
      8.48333330	    -10.02520139	     -2.46063414	      4.00239678	      0.36551453	      1.40578844	     -0.06952565	      9.59335463	     -0.45058732	    -10.45358854	     43.32697967	    -26.90550800	     -2.42936768	      0.00000000	     13.27703880	     -4.43706836	    -11.36707483	     29.18180401	    -31.01388563	     -4.91231487	      0.00000000	     -8.03478756	      1.89492027	     -5.17497254	     -1.01513452	    -15.49655342	     33.33382915	     42.54807705	     68.26673279	    -27.60776611	    -14.21627586	     10.06363527	     84.28952156	     90.78346083
      8.50000000	     -9.90822725	     -2.92341197	      3.78411538	      0.37603327	      1.40787024	     -0.06913961	     12.47246906	      0.10712984	    -10.52612156	     45.37414428	    -25.46797986	     -1.48719492	      0.00000000	     14.97920438	     -4.67485109	    -13.18936187	     27.77049786	    -31.39329401	     -4.28342677	      0.00000000	     -8.92232918	      2.50873403	     -5.01945006	     -0.33280053	    -15.56696189	     32.88350550	     42.94566346	     68.46639986	    -27.81117545	    -13.71805717	      9.06473276	     85.52101616	     92.02498198
      8.51666670	     -9.66883796	     -3.37835854	      3.62398028	      0.38928028	      1.40834129	     -0.07098188	     15.20818135	      0.56415696	    -10.44893968	     46.94978507	    -24.24161286	     -0.31165558	      0.00000000	     16.26277188	     -4.88820077	    -15.93458333	     25.69869105	    -32.84212138	     -5.03294720	      0.00000000	    -10.08426475	      3.19038353	     -5.05636893	      0.38380617	    -15.63375187	     32.29648318	     43.18528411	     68.64735532	    -27.52162503	    -13.46426223	      8.24271075	     86.65880030	     93.13214894
      8.53333330	     -9.87967918	     -3.56864082	      3.30988060	      0.39872132	      1.40294315	     -0.07365991	     18.33510409	      0.69728203	    -10.27263346	     47.50261357	    -22.62831799	      2.09290037	      0.00000000	     18.01618162	     -4.73077445	    -18.19238056	     24.03527309	    -34.19442974	     -5.76806654	      0.00000000	    -10.97867004	      3.58636646	     -5.04332409	      0.94573913	    -15.77658828	     31.71554366	     43.68648675	     68.88186348	    -27.37555769	    -13.36545646	      7.60601776	     87.93074500	     94.30599289
      8.55000000	     -9.96387686	     -3.58402524	      3.11656871	      0.41034001	      1.39289870	     -0.07050194	     21.27881400	      0.65216758	    -10.96131801	     47.64380465	    -20.57529516	      1.35210313	      0.00000000	     20.06009695	     -4.63564665	    -19.26678028	     23.81668511	    -34.15545908	     -6.15586112	      0.00000000	    -12.02152428	      3.58001631	     -4.87736727	      0.78569172	    -15.58585081	     29.27386173	     44.77617433	     70.31033646	    -27.93601837	    -12.90757047	      5.81955435	     89.57082784	    100.30111538
